<svg xmlns="http://www.w3.org/2000/svg" width="800" height="500" viewBox="0 0 800 500">
  <defs>
    <linearGradient id="bg" x1="0" y1="0" x2="1" y2="1">
      <stop offset="0" stop-color="#f1f5f9" />
      <stop offset="0.6" stop-color="#e2e8f0" />
      <stop offset="1" stop-color="#cbd5e1" />
    </linearGradient>
    <linearGradient id="accent" x1="0" y1="0" x2="1" y2="0">
      <stop offset="0" stop-color="#f5c315" />
      <stop offset="1" stop-color="#f59e0b" />
    </linearGradient>
  </defs>
  <rect width="800" height="500" fill="url(#bg)" />
  <g opacity="0.14">
    <rect x="70" y="110" width="220" height="130" rx="10" fill="#94a3b8" />
    <rect x="320" y="120" width="180" height="90" rx="10" fill="#a3b0c2" />
    <rect x="520" y="110" width="210" height="150" rx="10" fill="#94a3b8" />
    <rect x="100" y="270" width="240" height="150" rx="12" fill="#a3b0c2" />
    <rect x="370" y="250" width="170" height="170" rx="12" fill="#94a3b8" />
    <rect x="565" y="290" width="180" height="120" rx="12" fill="#a3b0c2" />
  </g>
  <path d="M132 280L266 252L332 282L462 232L596 274L674 242L706 266V384L628 416L510 398L422 428L286 414L170 430L132 406Z" fill="none" stroke="url(#accent)" stroke-width="6" stroke-linejoin="round" />
  <g font-family="Inter, ui-sans-serif, system-ui, -apple-system, Segoe UI, Roboto, Helvetica Neue, Arial" fill="#0f172a">
    <text x="32" y="44" font-size="20" font-weight="650">Northern Fringe · Aerial context</text>
    <text x="32" y="72" font-size="12" fill="#475569">Illustrative placeholder (not a real aerial) · Demo UI</text>
  </g>
  <g opacity="0.75">
    <rect x="32" y="454" width="736" height="18" rx="9" fill="#0f172a" opacity="0.06" />
    <rect x="32" y="454" width="318" height="18" rx="9" fill="url(#accent)" opacity="0.85" />
    <text x="48" y="467" font-family="Inter, ui-sans-serif, system-ui" font-size="11" fill="#0f172a">Overlay: candidate site boundary · Date: 2024‑11‑15</text>
  </g>
</svg>

